<svg xmlns="http://www.w3.org/2000/svg" viewBox="0 0 572.02 167.54"><defs><style>.cls-1{fill:none;}.cls-2{fill:#fff;}</style></defs><title>logo</title><g id="Layer_1-2"><path class="cls-1" d="M261.1 161.97v-127"/><path class="cls-2" d="M341.1 35h-87v127h15V87h72c17.58 0 32-11.8 32-25.93v-.37c0-14.13-14.41-25.69-32-25.69m18 25.99c0 6.15-8.45 10.93-18 10.93h-72V49h72c9.54 0 18 5.54 18 11.69zM8.32 167.54L0 155.93 153.82 45.7l-27.68-19.6 8.26-11.66 31.7 22.45 46.67-33.44a19.1 19.1 0 0 1 19.67-1.35A15.52 15.52 0 0 1 241.3 16v59a15.52 15.52 0 0 1-8.81 13.82 19.12 19.12 0 0 1-19.64-1.27l-46.7-33.07zM178.44 45.63l42.67 30.22a4.84 4.84 0 0 0 4.82.24c.18-.09 1.09-.59 1.09-1.14V16c0-.56-1-1.08-1.1-1.14a4.84 4.84 0 0 0-4.83.25zM567.15 65.09l-39.37-26.62a22.35 22.35 0 0 0-24 .07l-43.73 30.12a13.93 13.93 0 0 1-7.67 2.34h-46.26a10.87 10.87 0 0 1-10.71-11l-.23-25-14.28.09.22 24.91a25 25 0 0 0 25 25h46.26a28.06 28.06 0 0 0 15.75-4.67l43.73-30c2-1.34 6-1.21 7.92.12L549.9 71h-35.8v14h45.57c5.64 0 10.42-3.26 11.9-8.1a10.4 10.4 0 0 0-4.42-11.77"/></g></svg>